<svg width="3452" height="2259" viewBox="0 0 3452 2259" fill="none" xmlns="http://www.w3.org/2000/svg">
<path d="M44.7443 1020.82V1095.82H21.3068V1020.82H44.7443ZM99.2898 1020.82V1095.82H75.8523V1020.82H99.2898ZM169.15 1140.56V1239H144.007V1020.82H169.15V1100.93H171.28C175.115 1092.48 180.868 1085.77 188.539 1080.8C196.28 1075.75 206.578 1073.23 219.434 1073.23C230.584 1073.23 240.35 1075.47 248.73 1079.94C257.111 1084.35 263.61 1091.13 268.226 1100.29C272.914 1109.38 275.257 1120.96 275.257 1135.02V1239H250.115V1136.73C250.115 1123.73 246.742 1113.68 239.995 1106.58C233.319 1099.4 224.05 1095.82 212.189 1095.82C203.951 1095.82 196.564 1097.56 190.03 1101.04C183.567 1104.52 178.453 1109.6 174.689 1116.27C170.996 1122.95 169.15 1131.05 169.15 1140.56ZM321.254 1239V1075.36H346.396V1239H321.254ZM334.038 1048.09C329.137 1048.09 324.911 1046.42 321.36 1043.08C317.88 1039.75 316.14 1035.73 316.14 1031.05C316.14 1026.36 317.88 1022.35 321.36 1019.01C324.911 1015.67 329.137 1014 334.038 1014C338.938 1014 343.129 1015.67 346.609 1019.01C350.16 1022.35 351.935 1026.36 351.935 1031.05C351.935 1035.73 350.16 1039.75 346.609 1043.08C343.129 1046.42 338.938 1048.09 334.038 1048.09ZM513.894 1239L464.036 1075.36H490.456L525.826 1200.65H527.53L562.473 1075.36H589.32L623.837 1200.22H625.542L660.911 1075.36H687.331L637.473 1239H612.757L576.962 1113.29H574.405L538.61 1239H513.894ZM781.481 1242.41C766.708 1242.41 753.746 1238.89 742.596 1231.86C731.516 1224.83 722.852 1214.99 716.602 1202.35C710.423 1189.71 707.333 1174.94 707.333 1158.03C707.333 1140.99 710.423 1126.11 716.602 1113.4C722.852 1100.68 731.516 1090.81 742.596 1083.78C753.746 1076.75 766.708 1073.23 781.481 1073.23C796.254 1073.23 809.18 1076.75 820.259 1083.78C831.41 1090.81 840.075 1100.68 846.254 1113.4C852.504 1126.11 855.629 1140.99 855.629 1158.03C855.629 1174.94 852.504 1189.71 846.254 1202.35C840.075 1214.99 831.41 1224.83 820.259 1231.86C809.18 1238.89 796.254 1242.41 781.481 1242.41ZM781.481 1219.82C792.702 1219.82 801.935 1216.95 809.18 1211.19C816.424 1205.44 821.786 1197.88 825.266 1188.5C828.746 1179.13 830.487 1168.97 830.487 1158.03C830.487 1147.1 828.746 1136.9 825.266 1127.46C821.786 1118.01 816.424 1110.38 809.18 1104.55C801.935 1098.73 792.702 1095.82 781.481 1095.82C770.259 1095.82 761.026 1098.73 753.782 1104.55C746.538 1110.38 741.175 1118.01 737.695 1127.46C734.215 1136.9 732.475 1147.1 732.475 1158.03C732.475 1168.97 734.215 1179.13 737.695 1188.5C741.175 1197.88 746.538 1205.44 753.782 1211.19C761.026 1216.95 770.259 1219.82 781.481 1219.82ZM894.007 1239V1075.36H918.297V1100.08H920.002C922.985 1091.98 928.382 1085.41 936.195 1080.37C944.007 1075.33 952.814 1072.81 962.615 1072.81C964.462 1072.81 966.77 1072.84 969.54 1072.91C972.31 1072.98 974.405 1073.09 975.826 1073.23V1098.8C974.973 1098.59 973.02 1098.27 969.966 1097.84C966.983 1097.35 963.823 1097.1 960.485 1097.1C952.53 1097.1 945.428 1098.77 939.178 1102.1C932.999 1105.37 928.098 1109.92 924.476 1115.74C920.925 1121.49 919.15 1128.06 919.15 1135.45V1239H894.007ZM1030.77 1020.82V1239H1005.63V1020.82H1030.77ZM1138.61 1242.41C1124.97 1242.41 1112.94 1238.96 1102.49 1232.08C1092.05 1225.12 1083.89 1215.31 1077.99 1202.67C1072.1 1189.96 1069.15 1174.94 1069.15 1157.61C1069.15 1140.42 1072.1 1125.51 1077.99 1112.86C1083.89 1100.22 1092.09 1090.46 1102.6 1083.57C1113.11 1076.68 1125.26 1073.23 1139.04 1073.23C1149.69 1073.23 1158.11 1075.01 1164.28 1078.56C1170.53 1082.04 1175.29 1086.02 1178.56 1090.49C1181.9 1094.89 1184.49 1098.52 1186.34 1101.36H1188.47V1020.82H1213.61V1239H1189.32V1213.86H1186.34C1184.49 1216.84 1181.86 1220.61 1178.45 1225.15C1175.04 1229.62 1170.18 1233.64 1163.86 1237.19C1157.54 1240.67 1149.12 1242.41 1138.61 1242.41ZM1142.02 1219.82C1152.1 1219.82 1160.63 1217.2 1167.59 1211.94C1174.55 1206.61 1179.84 1199.26 1183.46 1189.89C1187.08 1180.44 1188.89 1169.54 1188.89 1157.18C1188.89 1144.97 1187.12 1134.28 1183.57 1125.12C1180.02 1115.88 1174.76 1108.71 1167.8 1103.6C1160.84 1098.41 1152.25 1095.82 1142.02 1095.82C1131.37 1095.82 1122.49 1098.55 1115.39 1104.02C1108.35 1109.42 1103.06 1116.77 1099.51 1126.07C1096.03 1135.31 1094.29 1145.68 1094.29 1157.18C1094.29 1168.83 1096.07 1179.41 1099.62 1188.93C1103.24 1198.37 1108.57 1205.9 1115.6 1211.51C1122.7 1217.05 1131.51 1219.82 1142.02 1219.82ZM1347.52 1239V1075.36H1372.67V1239H1347.52ZM1360.31 1048.09C1355.41 1048.09 1351.18 1046.42 1347.63 1043.08C1344.15 1039.75 1342.41 1035.73 1342.41 1031.05C1342.41 1026.36 1344.15 1022.35 1347.63 1019.01C1351.18 1015.67 1355.41 1014 1360.31 1014C1365.21 1014 1369.4 1015.67 1372.88 1019.01C1376.43 1022.35 1378.2 1026.36 1378.2 1031.05C1378.2 1035.73 1376.43 1039.75 1372.88 1043.08C1369.4 1046.42 1365.21 1048.09 1360.31 1048.09ZM1418.71 1239V1075.36H1443V1100.93H1445.13C1448.54 1092.2 1454.05 1085.41 1461.65 1080.58C1469.25 1075.68 1478.37 1073.23 1489.03 1073.23C1499.82 1073.23 1508.81 1075.68 1515.98 1080.58C1523.22 1085.41 1528.87 1092.2 1532.92 1100.93H1534.62C1538.81 1092.48 1545.1 1085.77 1553.48 1080.8C1561.86 1075.75 1571.91 1073.23 1583.63 1073.23C1598.26 1073.23 1610.23 1077.81 1619.53 1086.98C1628.84 1096.07 1633.49 1110.24 1633.49 1129.48V1239H1608.35V1129.48C1608.35 1117.41 1605.04 1108.78 1598.44 1103.6C1591.83 1098.41 1584.06 1095.82 1575.11 1095.82C1563.6 1095.82 1554.69 1099.3 1548.37 1106.26C1542.05 1113.15 1538.88 1121.88 1538.88 1132.47V1239H1513.32V1126.93C1513.32 1117.62 1510.3 1110.13 1504.26 1104.45C1498.22 1098.69 1490.45 1095.82 1480.93 1095.82C1474.4 1095.82 1468.29 1097.56 1462.61 1101.04C1457 1104.52 1452.45 1109.35 1448.97 1115.53C1445.56 1121.63 1443.86 1128.7 1443.86 1136.73V1239H1418.71ZM1788.97 1140.56V1239H1763.83V1020.82H1788.97V1100.93H1791.1C1794.94 1092.48 1800.69 1085.77 1808.36 1080.8C1816.1 1075.75 1826.4 1073.23 1839.26 1073.23C1850.41 1073.23 1860.17 1075.47 1868.55 1079.94C1876.94 1084.35 1883.43 1091.13 1888.05 1100.29C1892.74 1109.38 1895.08 1120.96 1895.08 1135.02V1239H1869.94V1136.73C1869.94 1123.73 1866.57 1113.68 1859.82 1106.58C1853.14 1099.4 1843.87 1095.82 1832.01 1095.82C1823.77 1095.82 1816.39 1097.56 1809.85 1101.04C1803.39 1104.52 1798.28 1109.6 1794.51 1116.27C1790.82 1122.95 1788.97 1131.05 1788.97 1140.56ZM2009.69 1242.41C1993.92 1242.41 1980.32 1238.93 1968.88 1231.97C1957.52 1224.94 1948.75 1215.14 1942.57 1202.57C1936.46 1189.92 1933.41 1175.22 1933.41 1158.46C1933.41 1141.7 1936.46 1126.93 1942.57 1114.14C1948.75 1101.29 1957.34 1091.27 1968.35 1084.1C1979.43 1076.86 1992.36 1073.23 2007.13 1073.23C2015.65 1073.23 2024.07 1074.65 2032.38 1077.49C2040.69 1080.34 2048.25 1084.95 2055.07 1091.34C2061.89 1097.66 2067.32 1106.05 2071.37 1116.49C2075.42 1126.93 2077.44 1139.78 2077.44 1155.05V1165.7H1951.31V1143.97H2051.87C2051.87 1134.74 2050.03 1126.5 2046.33 1119.26C2042.71 1112.01 2037.53 1106.29 2030.78 1102.1C2024.1 1097.91 2016.22 1095.82 2007.13 1095.82C1997.11 1095.82 1988.45 1098.3 1981.13 1103.28C1973.89 1108.18 1968.31 1114.57 1964.41 1122.45C1960.5 1130.34 1958.55 1138.79 1958.55 1147.81V1162.3C1958.55 1174.65 1960.68 1185.13 1964.94 1193.72C1969.27 1202.25 1975.28 1208.74 1982.95 1213.22C1990.62 1217.62 1999.53 1219.82 2009.69 1219.82C2016.29 1219.82 2022.26 1218.9 2027.58 1217.05C2032.98 1215.14 2037.63 1212.3 2041.54 1208.53C2045.45 1204.7 2048.46 1199.94 2050.59 1194.26L2074.88 1201.07C2072.33 1209.31 2068.03 1216.56 2061.99 1222.81C2055.96 1228.99 2048.5 1233.82 2039.62 1237.3C2030.74 1240.7 2020.77 1242.41 2009.69 1242.41ZM2115.69 1239V1075.36H2139.98V1100.08H2141.68C2144.66 1091.98 2150.06 1085.41 2157.87 1080.37C2165.69 1075.33 2174.49 1072.81 2184.3 1072.81C2186.14 1072.81 2188.45 1072.84 2191.22 1072.91C2193.99 1072.98 2196.08 1073.09 2197.51 1073.23V1098.8C2196.65 1098.59 2194.7 1098.27 2191.65 1097.84C2188.66 1097.35 2185.5 1097.1 2182.16 1097.1C2174.21 1097.1 2167.11 1098.77 2160.86 1102.1C2154.68 1105.37 2149.78 1109.92 2146.16 1115.74C2142.6 1121.49 2140.83 1128.06 2140.83 1135.45V1239H2115.69ZM2290.94 1242.41C2275.17 1242.41 2261.57 1238.93 2250.13 1231.97C2238.77 1224.94 2230 1215.14 2223.82 1202.57C2217.71 1189.92 2214.66 1175.22 2214.66 1158.46C2214.66 1141.7 2217.71 1126.93 2223.82 1114.14C2230 1101.29 2238.59 1091.27 2249.6 1084.1C2260.68 1076.86 2273.61 1073.23 2288.38 1073.23C2296.9 1073.23 2305.32 1074.65 2313.63 1077.49C2321.94 1080.34 2329.5 1084.95 2336.32 1091.34C2343.14 1097.66 2348.57 1106.05 2352.62 1116.49C2356.67 1126.93 2358.69 1139.78 2358.69 1155.05V1165.7H2232.56V1143.97H2333.12C2333.12 1134.74 2331.28 1126.5 2327.58 1119.26C2323.96 1112.01 2318.78 1106.29 2312.03 1102.1C2305.35 1097.91 2297.47 1095.82 2288.38 1095.82C2278.36 1095.82 2269.7 1098.3 2262.38 1103.28C2255.14 1108.18 2249.56 1114.57 2245.66 1122.45C2241.75 1130.34 2239.8 1138.79 2239.8 1147.81V1162.3C2239.8 1174.65 2241.93 1185.13 2246.19 1193.72C2250.52 1202.25 2256.53 1208.74 2264.2 1213.22C2271.87 1217.62 2280.78 1219.82 2290.94 1219.82C2297.54 1219.82 2303.51 1218.9 2308.83 1217.05C2314.23 1215.14 2318.88 1212.3 2322.79 1208.53C2326.7 1204.7 2329.71 1199.94 2331.84 1194.26L2356.13 1201.07C2353.58 1209.31 2349.28 1216.56 2343.24 1222.81C2337.21 1228.99 2329.75 1233.82 2320.87 1237.3C2311.99 1240.7 2302.02 1242.41 2290.94 1242.41ZM2418.67 1020.82V1095.82H2395.23V1020.82H2418.67ZM2473.22 1020.82V1095.82H2449.78V1020.82H2473.22Z" fill="#006CA9"/>
<path d="M150.369 335.318V62.5909H213.438V83.4716H174.233V314.438H213.438V335.318H150.369ZM268.436 72.8182V147.818H244.998V72.8182H268.436ZM322.981 72.8182V147.818H299.544V72.8182H322.981ZM404.773 291L354.915 127.364H381.335L416.705 252.648H418.409L453.352 127.364H480.199L514.716 252.222H516.42L551.79 127.364H578.21L528.352 291H503.636L467.841 165.29H465.284L429.489 291H404.773ZM672.36 294.409C657.587 294.409 644.625 290.893 633.475 283.862C622.395 276.831 613.73 266.994 607.48 254.352C601.301 241.71 598.212 226.937 598.212 210.034C598.212 192.989 601.301 178.109 607.48 165.396C613.73 152.683 622.395 142.811 633.475 135.78C644.625 128.749 657.587 125.233 672.36 125.233C687.132 125.233 700.059 128.749 711.138 135.78C722.289 142.811 730.953 152.683 737.132 165.396C743.382 178.109 746.507 192.989 746.507 210.034C746.507 226.937 743.382 241.71 737.132 254.352C730.953 266.994 722.289 276.831 711.138 283.862C700.059 290.893 687.132 294.409 672.36 294.409ZM672.36 271.824C683.581 271.824 692.814 268.947 700.059 263.195C707.303 257.442 712.665 249.878 716.145 240.503C719.625 231.128 721.365 220.972 721.365 210.034C721.365 199.097 719.625 188.905 716.145 179.459C712.665 170.013 707.303 162.378 700.059 156.554C692.814 150.73 683.581 147.818 672.36 147.818C661.138 147.818 651.905 150.73 644.661 156.554C637.417 162.378 632.054 170.013 628.574 179.459C625.094 188.905 623.354 199.097 623.354 210.034C623.354 220.972 625.094 231.128 628.574 240.503C632.054 249.878 637.417 257.442 644.661 263.195C651.905 268.947 661.138 271.824 672.36 271.824ZM784.886 291V127.364H809.176V152.08H810.881C813.864 143.983 819.261 137.413 827.074 132.371C834.886 127.328 843.693 124.807 853.494 124.807C855.341 124.807 857.649 124.842 860.419 124.913C863.189 124.984 865.284 125.091 866.705 125.233V150.801C865.852 150.588 863.899 150.268 860.845 149.842C857.862 149.345 854.702 149.097 851.364 149.097C843.409 149.097 836.307 150.766 830.057 154.104C823.878 157.371 818.977 161.916 815.355 167.74C811.804 173.493 810.028 180.062 810.028 187.449V291H784.886ZM921.65 72.8182V291H896.507V72.8182H921.65ZM1029.49 294.409C1015.85 294.409 1003.81 290.964 993.374 284.075C982.933 277.115 974.766 267.314 968.871 254.672C962.976 241.959 960.028 226.938 960.028 209.608C960.028 192.42 962.976 177.506 968.871 164.864C974.766 152.222 982.969 142.456 993.48 135.567C1003.99 128.678 1016.14 125.233 1029.91 125.233C1040.57 125.233 1048.98 127.009 1055.16 130.56C1061.41 134.04 1066.17 138.017 1069.44 142.491C1072.78 146.895 1075.37 150.517 1077.22 153.358H1079.35V72.8182H1104.49V291H1080.2V265.858H1077.22C1075.37 268.841 1072.74 272.605 1069.33 277.151C1065.92 281.625 1061.06 285.638 1054.74 289.189C1048.42 292.669 1040 294.409 1029.49 294.409ZM1032.9 271.824C1042.98 271.824 1051.51 269.196 1058.47 263.94C1065.43 258.614 1070.72 251.263 1074.34 241.888C1077.96 232.442 1079.77 221.54 1079.77 209.182C1079.77 196.966 1078 186.277 1074.45 177.115C1070.89 167.882 1065.64 160.709 1058.68 155.595C1051.72 150.411 1043.13 147.818 1032.9 147.818C1022.24 147.818 1013.37 150.553 1006.26 156.021C999.233 161.419 993.942 168.77 990.391 178.074C986.911 187.307 985.17 197.676 985.17 209.182C985.17 220.83 986.946 231.412 990.497 240.929C994.119 250.375 999.446 257.903 1006.48 263.514C1013.58 269.054 1022.39 271.824 1032.9 271.824ZM1175.76 72.8182V147.818H1152.32V72.8182H1175.76ZM1230.31 72.8182V147.818H1206.87V72.8182H1230.31ZM1287.91 261.17L1286.21 272.676C1285 280.773 1283.16 289.438 1280.67 298.67C1278.25 307.903 1275.73 316.604 1273.11 324.771C1270.48 332.939 1268.31 339.438 1266.61 344.267H1247.43C1248.35 339.722 1249.56 333.72 1251.05 326.263C1252.54 318.805 1254.04 310.46 1255.53 301.227C1257.09 292.065 1258.37 282.69 1259.36 273.102L1260.64 261.17H1287.91ZM1440.6 72.8182V147.818H1417.17V72.8182H1440.6ZM1495.15 72.8182V147.818H1471.71V72.8182H1495.15ZM1565.01 192.562V291H1539.87V72.8182H1565.01V152.932H1567.14C1570.97 144.48 1576.73 137.768 1584.4 132.797C1592.14 127.754 1602.44 125.233 1615.29 125.233C1626.44 125.233 1636.21 127.47 1644.59 131.945C1652.97 136.348 1659.47 143.131 1664.09 152.293C1668.77 161.384 1671.12 172.96 1671.12 187.023V291H1645.97V188.727C1645.97 175.73 1642.6 165.68 1635.85 158.578C1629.18 151.405 1619.91 147.818 1608.05 147.818C1599.81 147.818 1592.42 149.558 1585.89 153.038C1579.43 156.518 1574.31 161.597 1570.55 168.273C1566.86 174.949 1565.01 183.045 1565.01 192.562ZM1785.72 294.409C1769.95 294.409 1756.35 290.929 1744.92 283.969C1733.55 276.938 1724.78 267.136 1718.6 254.565C1712.5 241.923 1709.44 227.222 1709.44 210.46C1709.44 193.699 1712.5 178.926 1718.6 166.142C1724.78 153.287 1733.38 143.273 1744.39 136.099C1755.47 128.855 1768.39 125.233 1783.16 125.233C1791.69 125.233 1800.1 126.653 1808.41 129.494C1816.72 132.335 1824.29 136.952 1831.1 143.344C1837.92 149.665 1843.36 158.045 1847.4 168.486C1851.45 178.926 1853.48 191.781 1853.48 207.051V217.705H1727.34V195.972H1827.91C1827.91 186.739 1826.06 178.5 1822.37 171.256C1818.75 164.011 1813.56 158.294 1806.81 154.104C1800.14 149.913 1792.25 147.818 1783.16 147.818C1773.15 147.818 1764.49 150.304 1757.17 155.276C1749.93 160.176 1744.35 166.568 1740.44 174.452C1736.54 182.335 1734.58 190.787 1734.58 199.807V214.295C1734.58 226.653 1736.72 237.129 1740.98 245.723C1745.31 254.246 1751.31 260.744 1758.98 265.219C1766.65 269.622 1775.56 271.824 1785.72 271.824C1792.33 271.824 1798.29 270.901 1803.62 269.054C1809.02 267.136 1813.67 264.295 1817.57 260.531C1821.48 256.696 1824.5 251.937 1826.63 246.256L1850.92 253.074C1848.36 261.312 1844.07 268.557 1838.03 274.807C1831.99 280.986 1824.53 285.815 1815.66 289.295C1806.78 292.705 1796.8 294.409 1785.72 294.409ZM1891.72 291V127.364H1916.01V152.08H1917.72C1920.7 143.983 1926.1 137.413 1933.91 132.371C1941.72 127.328 1950.53 124.807 1960.33 124.807C1962.18 124.807 1964.49 124.842 1967.25 124.913C1970.02 124.984 1972.12 125.091 1973.54 125.233V150.801C1972.69 150.588 1970.74 150.268 1967.68 149.842C1964.7 149.345 1961.54 149.097 1958.2 149.097C1950.25 149.097 1943.14 150.766 1936.89 154.104C1930.71 157.371 1925.81 161.916 1922.19 167.74C1918.64 173.493 1916.86 180.062 1916.86 187.449V291H1891.72ZM2066.97 294.409C2051.2 294.409 2037.6 290.929 2026.17 283.969C2014.8 276.938 2006.03 267.136 1999.85 254.565C1993.75 241.923 1990.69 227.222 1990.69 210.46C1990.69 193.699 1993.75 178.926 1999.85 166.142C2006.03 153.287 2014.63 143.273 2025.64 136.099C2036.72 128.855 2049.64 125.233 2064.41 125.233C2072.94 125.233 2081.35 126.653 2089.66 129.494C2097.97 132.335 2105.54 136.952 2112.35 143.344C2119.17 149.665 2124.61 158.045 2128.65 168.486C2132.7 178.926 2134.73 191.781 2134.73 207.051V217.705H2008.59V195.972H2109.16C2109.16 186.739 2107.31 178.5 2103.62 171.256C2100 164.011 2094.81 158.294 2088.06 154.104C2081.39 149.913 2073.5 147.818 2064.41 147.818C2054.4 147.818 2045.74 150.304 2038.42 155.276C2031.18 160.176 2025.6 166.568 2021.69 174.452C2017.79 182.335 2015.83 190.787 2015.83 199.807V214.295C2015.83 226.653 2017.97 237.129 2022.23 245.723C2026.56 254.246 2032.56 260.744 2040.23 265.219C2047.9 269.622 2056.81 271.824 2066.97 271.824C2073.58 271.824 2079.54 270.901 2084.87 269.054C2090.27 267.136 2094.92 264.295 2098.82 260.531C2102.73 256.696 2105.75 251.937 2107.88 246.256L2132.17 253.074C2129.61 261.312 2125.32 268.557 2119.28 274.807C2113.24 280.986 2105.78 285.815 2096.91 289.295C2088.03 292.705 2078.05 294.409 2066.97 294.409ZM2194.71 72.8182V147.818H2171.27V72.8182H2194.71ZM2249.25 72.8182V147.818H2225.81V72.8182H2249.25ZM2344.25 62.5909V335.318H2281.18V314.438H2320.39V83.4716H2281.18V62.5909H2344.25Z" fill="#006CA9"/>
<path d="M150.369 2231.32V1958.59H213.438V1979.47H174.233V2210.44H213.438V2231.32H150.369ZM268.436 1968.82V2043.82H244.998V1968.82H268.436ZM322.981 1968.82V2043.82H299.544V1968.82H322.981ZM392.841 2088.56V2187H367.699V1968.82H392.841V2048.93H394.972C398.807 2040.48 404.56 2033.77 412.23 2028.8C419.972 2023.75 430.27 2021.23 443.125 2021.23C454.276 2021.23 464.041 2023.47 472.422 2027.94C480.803 2032.35 487.301 2039.13 491.918 2048.29C496.605 2057.38 498.949 2068.96 498.949 2083.02V2187H473.807V2084.73C473.807 2071.73 470.433 2061.68 463.686 2054.58C457.01 2047.4 447.741 2043.82 435.881 2043.82C427.642 2043.82 420.256 2045.56 413.722 2049.04C407.259 2052.52 402.145 2057.6 398.381 2064.27C394.688 2070.95 392.841 2079.05 392.841 2088.56ZM613.553 2190.41C597.786 2190.41 584.185 2186.93 572.75 2179.97C561.387 2172.94 552.615 2163.14 546.436 2150.57C540.328 2137.92 537.275 2123.22 537.275 2106.46C537.275 2089.7 540.328 2074.93 546.436 2062.14C552.615 2049.29 561.209 2039.27 572.218 2032.1C583.297 2024.86 596.223 2021.23 610.996 2021.23C619.519 2021.23 627.935 2022.65 636.245 2025.49C644.554 2028.34 652.118 2032.95 658.936 2039.34C665.755 2045.66 671.188 2054.05 675.236 2064.49C679.284 2074.93 681.309 2087.78 681.309 2103.05V2113.7H555.172V2091.97H655.74C655.74 2082.74 653.894 2074.5 650.201 2067.26C646.578 2060.01 641.394 2054.29 634.647 2050.1C627.971 2045.91 620.087 2043.82 610.996 2043.82C600.982 2043.82 592.317 2046.3 585.002 2051.28C577.757 2056.18 572.182 2062.57 568.276 2070.45C564.37 2078.34 562.417 2086.79 562.417 2095.81V2110.3C562.417 2122.65 564.547 2133.13 568.809 2141.72C573.141 2150.25 579.142 2156.74 586.813 2161.22C594.483 2165.62 603.397 2167.82 613.553 2167.82C620.158 2167.82 626.124 2166.9 631.451 2165.05C636.848 2163.14 641.5 2160.3 645.407 2156.53C649.313 2152.7 652.331 2147.94 654.462 2142.26L678.752 2149.07C676.195 2157.31 671.898 2164.56 665.861 2170.81C659.824 2176.99 652.367 2181.82 643.489 2185.3C634.611 2188.7 624.632 2190.41 613.553 2190.41ZM719.554 2187V2023.36H743.844V2048.08H745.549C748.532 2039.98 753.929 2033.41 761.742 2028.37C769.554 2023.33 778.361 2020.81 788.162 2020.81C790.009 2020.81 792.317 2020.84 795.087 2020.91C797.857 2020.98 799.952 2021.09 801.373 2021.23V2046.8C800.52 2046.59 798.567 2046.27 795.513 2045.84C792.53 2045.35 789.37 2045.1 786.032 2045.1C778.077 2045.1 770.975 2046.77 764.725 2050.1C758.546 2053.37 753.645 2057.92 750.023 2063.74C746.472 2069.49 744.696 2076.06 744.696 2083.45V2187H719.554ZM894.803 2190.41C879.036 2190.41 865.435 2186.93 854 2179.97C842.637 2172.94 833.865 2163.14 827.686 2150.57C821.578 2137.92 818.525 2123.22 818.525 2106.46C818.525 2089.7 821.578 2074.93 827.686 2062.14C833.865 2049.29 842.459 2039.27 853.468 2032.1C864.547 2024.86 877.473 2021.23 892.246 2021.23C900.769 2021.23 909.185 2022.65 917.495 2025.49C925.804 2028.34 933.368 2032.95 940.186 2039.34C947.005 2045.66 952.438 2054.05 956.486 2064.49C960.534 2074.93 962.559 2087.78 962.559 2103.05V2113.7H836.422V2091.97H936.99C936.99 2082.74 935.144 2074.5 931.451 2067.26C927.828 2060.01 922.644 2054.29 915.897 2050.1C909.221 2045.91 901.337 2043.82 892.246 2043.82C882.232 2043.82 873.567 2046.3 866.252 2051.28C859.007 2056.18 853.432 2062.57 849.526 2070.45C845.62 2078.34 843.667 2086.79 843.667 2095.81V2110.3C843.667 2122.65 845.797 2133.13 850.059 2141.72C854.391 2150.25 860.392 2156.74 868.063 2161.22C875.733 2165.62 884.647 2167.82 894.803 2167.82C901.408 2167.82 907.374 2166.9 912.701 2165.05C918.098 2163.14 922.75 2160.3 926.657 2156.53C930.563 2152.7 933.581 2147.94 935.712 2142.26L960.002 2149.07C957.445 2157.31 953.148 2164.56 947.111 2170.81C941.074 2176.99 933.617 2181.82 924.739 2185.3C915.861 2188.7 905.882 2190.41 894.803 2190.41ZM1022.54 1968.82V2043.82H999.1V1968.82H1022.54ZM1077.08 1968.82V2043.82H1053.65V1968.82H1077.08ZM1134.69 2157.17L1132.99 2168.68C1131.78 2176.77 1129.93 2185.44 1127.45 2194.67C1125.03 2203.9 1122.51 2212.6 1119.88 2220.77C1117.25 2228.94 1115.09 2235.44 1113.38 2240.27H1094.21C1095.13 2235.72 1096.34 2229.72 1097.83 2222.26C1099.32 2214.81 1100.81 2206.46 1102.3 2197.23C1103.87 2188.07 1105.15 2178.69 1106.14 2169.1L1107.42 2157.17H1134.69ZM1287.38 1968.82V2043.82H1263.94V1968.82H1287.38ZM1341.93 1968.82V2043.82H1318.49V1968.82H1341.93ZM1423.72 2187L1373.86 2023.36H1400.28L1435.65 2148.65H1437.35L1472.3 2023.36H1499.14L1533.66 2148.22H1535.37L1570.74 2023.36H1597.16L1547.3 2187H1522.58L1486.79 2061.29H1484.23L1448.43 2187H1423.72ZM1691.31 2190.41C1676.53 2190.41 1663.57 2186.89 1652.42 2179.86C1641.34 2172.83 1632.68 2162.99 1626.43 2150.35C1620.25 2137.71 1617.16 2122.94 1617.16 2106.03C1617.16 2088.99 1620.25 2074.11 1626.43 2061.4C1632.68 2048.68 1641.34 2038.81 1652.42 2031.78C1663.57 2024.75 1676.53 2021.23 1691.31 2021.23C1706.08 2021.23 1719 2024.75 1730.08 2031.78C1741.23 2038.81 1749.9 2048.68 1756.08 2061.4C1762.33 2074.11 1765.45 2088.99 1765.45 2106.03C1765.45 2122.94 1762.33 2137.71 1756.08 2150.35C1749.9 2162.99 1741.23 2172.83 1730.08 2179.86C1719 2186.89 1706.08 2190.41 1691.31 2190.41ZM1691.31 2167.82C1702.53 2167.82 1711.76 2164.95 1719 2159.19C1726.25 2153.44 1731.61 2145.88 1735.09 2136.5C1738.57 2127.13 1740.31 2116.97 1740.31 2106.03C1740.31 2095.1 1738.57 2084.9 1735.09 2075.46C1731.61 2066.01 1726.25 2058.38 1719 2052.55C1711.76 2046.73 1702.53 2043.82 1691.31 2043.82C1680.08 2043.82 1670.85 2046.73 1663.61 2052.55C1656.36 2058.38 1651 2066.01 1647.52 2075.46C1644.04 2084.9 1642.3 2095.1 1642.3 2106.03C1642.3 2116.97 1644.04 2127.13 1647.52 2136.5C1651 2145.88 1656.36 2153.44 1663.61 2159.19C1670.85 2164.95 1680.08 2167.82 1691.31 2167.82ZM1803.83 2187V2023.36H1828.12V2048.08H1829.83C1832.81 2039.98 1838.21 2033.41 1846.02 2028.37C1853.83 2023.33 1862.64 2020.81 1872.44 2020.81C1874.29 2020.81 1876.59 2020.84 1879.36 2020.91C1882.13 2020.98 1884.23 2021.09 1885.65 2021.23V2046.8C1884.8 2046.59 1882.84 2046.27 1879.79 2045.84C1876.81 2045.35 1873.65 2045.1 1870.31 2045.1C1862.35 2045.1 1855.25 2046.77 1849 2050.1C1842.82 2053.37 1837.92 2057.92 1834.3 2063.74C1830.75 2069.49 1828.97 2076.06 1828.97 2083.45V2187H1803.83ZM1940.59 1968.82V2187H1915.45V1968.82H1940.59ZM2048.43 2190.41C2034.8 2190.41 2022.76 2186.96 2012.32 2180.08C2001.88 2173.12 1993.71 2163.31 1987.82 2150.67C1981.92 2137.96 1978.97 2122.94 1978.97 2105.61C1978.97 2088.42 1981.92 2073.51 1987.82 2060.86C1993.71 2048.22 2001.91 2038.46 2012.43 2031.57C2022.94 2024.68 2035.08 2021.23 2048.86 2021.23C2059.51 2021.23 2067.93 2023.01 2074.11 2026.56C2080.36 2030.04 2085.12 2034.02 2088.38 2038.49C2091.72 2042.89 2094.31 2046.52 2096.16 2049.36H2098.29V1968.82H2123.43V2187H2099.14V2161.86H2096.16C2094.31 2164.84 2091.69 2168.61 2088.28 2173.15C2084.87 2177.62 2080 2181.64 2073.68 2185.19C2067.36 2188.67 2058.95 2190.41 2048.43 2190.41ZM2051.84 2167.82C2061.93 2167.82 2070.45 2165.2 2077.41 2159.94C2084.37 2154.61 2089.66 2147.26 2093.28 2137.89C2096.91 2128.44 2098.72 2117.54 2098.72 2105.18C2098.72 2092.97 2096.94 2082.28 2093.39 2073.12C2089.84 2063.88 2084.58 2056.71 2077.62 2051.6C2070.66 2046.41 2062.07 2043.82 2051.84 2043.82C2041.19 2043.82 2032.31 2046.55 2025.21 2052.02C2018.18 2057.42 2012.89 2064.77 2009.34 2074.07C2005.86 2083.31 2004.12 2093.68 2004.12 2105.18C2004.12 2116.83 2005.89 2127.41 2009.44 2136.93C2013.06 2146.37 2018.39 2153.9 2025.42 2159.51C2032.52 2165.05 2041.33 2167.82 2051.84 2167.82ZM2194.71 1968.82V2043.82H2171.27V1968.82H2194.71ZM2249.25 1968.82V2043.82H2225.81V1968.82H2249.25ZM2344.25 1958.59V2231.32H2281.18V2210.44H2320.39V1979.47H2281.18V1958.59H2344.25Z" fill="#006CA9"/>
<path d="M752.375 356.908C749.01 354.492 744.324 355.261 741.908 358.625L702.537 413.454C700.121 416.819 700.89 421.505 704.255 423.921C707.62 426.337 712.306 425.568 714.722 422.203L749.718 373.467L798.454 408.463C801.819 410.879 806.505 410.11 808.921 406.745C811.337 403.38 810.568 398.694 807.203 396.278L752.375 356.908ZM851.401 946.785L755.401 361.785L740.599 364.215L836.599 949.215L851.401 946.785Z" fill="#82D1F5"/>
<path d="M1954.31 356.865C1950.93 354.482 1946.25 355.298 1943.86 358.686L1905.04 413.905C1902.66 417.294 1903.48 421.972 1906.86 424.354C1910.25 426.736 1914.93 425.921 1917.31 422.532L1951.82 373.449L2000.91 407.957C2004.29 410.34 2008.97 409.524 2011.35 406.135C2013.74 402.747 2012.92 398.069 2009.53 395.686L1954.31 356.865ZM2059.39 946.712L1957.39 361.712L1942.61 364.288L2044.61 949.288L2059.39 946.712Z" fill="#82D1F5"/>
<path d="M1471.21 527L1497 547.172L1385.16 727H1359.37L1297 629.575L1322.79 602.751L1372.26 654.253L1471.21 527Z" fill="#737370"/>
<path d="M2478.29 760.364L2461.89 744.17L2541.15 664.909L2461.89 585.861L2478.29 569.455L2573.75 664.909L2478.29 760.364ZM2354.5 701.983V678.545H2544.34L2520.91 701.983H2354.5ZM2354.5 651.273V627.835H2520.91L2544.34 651.273H2354.5ZM2702.09 579.256V555.818H2865.73V579.256H2797.12V774H2770.7V579.256H2702.09ZM2886.11 774V610.364H2910.39V635.08H2912.1C2915.08 626.983 2920.48 620.413 2928.29 615.371C2936.11 610.328 2944.91 607.807 2954.71 607.807C2956.56 607.807 2958.87 607.842 2961.64 607.913C2964.41 607.984 2966.5 608.091 2967.92 608.233V633.801C2967.07 633.588 2965.12 633.268 2962.06 632.842C2959.08 632.345 2955.92 632.097 2952.58 632.097C2944.63 632.097 2937.53 633.766 2931.28 637.104C2925.1 640.371 2920.2 644.916 2916.57 650.74C2913.02 656.493 2911.25 663.062 2911.25 670.449V774H2886.11ZM3100.85 707.097V610.364H3125.99V774H3100.85V746.301H3099.15C3095.31 754.611 3089.35 761.678 3081.25 767.501C3073.15 773.254 3062.93 776.131 3050.57 776.131C3040.34 776.131 3031.25 773.893 3023.29 769.419C3015.34 764.874 3009.09 758.055 3004.54 748.964C3000 739.803 2997.73 728.261 2997.73 714.341V610.364H3022.87V712.636C3022.87 724.568 3026.21 734.085 3032.88 741.188C3039.63 748.29 3048.22 751.841 3058.66 751.841C3064.91 751.841 3071.27 750.243 3077.73 747.047C3084.27 743.851 3089.74 738.95 3094.14 732.345C3098.61 725.74 3100.85 717.324 3100.85 707.097ZM3240.65 777.409C3224.88 777.409 3211.28 773.929 3199.85 766.969C3188.48 759.938 3179.71 750.136 3173.53 737.565C3167.43 724.923 3164.37 710.222 3164.37 693.46C3164.37 676.699 3167.43 661.926 3173.53 649.142C3179.71 636.287 3188.31 626.273 3199.32 619.099C3210.39 611.855 3223.32 608.233 3238.09 608.233C3246.62 608.233 3255.03 609.653 3263.34 612.494C3271.65 615.335 3279.22 619.952 3286.03 626.344C3292.85 632.665 3298.29 641.045 3302.33 651.486C3306.38 661.926 3308.41 674.781 3308.41 690.051V700.705H3182.27V678.972H3282.84C3282.84 669.739 3280.99 661.5 3277.3 654.256C3273.68 647.011 3268.49 641.294 3261.74 637.104C3255.07 632.913 3247.18 630.818 3238.09 630.818C3228.08 630.818 3219.41 633.304 3212.1 638.276C3204.86 643.176 3199.28 649.568 3195.37 657.452C3191.47 665.335 3189.51 673.787 3189.51 682.807V697.295C3189.51 709.653 3191.64 720.129 3195.91 728.723C3200.24 737.246 3206.24 743.744 3213.91 748.219C3221.58 752.622 3230.49 754.824 3240.65 754.824C3247.26 754.824 3253.22 753.901 3258.55 752.054C3263.95 750.136 3268.6 747.295 3272.5 743.531C3276.41 739.696 3279.43 734.937 3281.56 729.256L3305.85 736.074C3303.29 744.312 3299 751.557 3292.96 757.807C3286.92 763.986 3279.46 768.815 3270.59 772.295C3261.71 775.705 3251.73 777.409 3240.65 777.409Z" fill="#FA8F00"/>
<path d="M1890.59 1903.04C1894.47 1901.61 1896.47 1897.3 1895.04 1893.41L1871.76 1830.05C1870.34 1826.17 1866.03 1824.17 1862.14 1825.6C1858.25 1827.03 1856.26 1831.34 1857.68 1835.23L1878.37 1891.55L1822.05 1912.24C1818.17 1913.67 1816.17 1917.97 1817.6 1921.86C1819.03 1925.75 1823.34 1927.74 1827.23 1926.32L1890.59 1903.04ZM713.851 1361.03L1884.85 1902.81L1891.15 1889.19L720.149 1347.42L713.851 1361.03Z" fill="#82D1F5"/>
<path d="M656.089 1893.09C654.48 1896.9 656.27 1901.3 660.086 1902.91L722.285 1929.13C726.102 1930.74 730.501 1928.95 732.11 1925.14C733.719 1921.32 731.929 1916.92 728.112 1915.31L672.824 1892L696.133 1836.71C697.742 1832.9 695.952 1828.5 692.135 1826.89C688.318 1825.28 683.92 1827.07 682.311 1830.89L656.089 1893.09ZM1998.17 1344.64L660.173 1889.05L665.827 1902.95L2003.83 1358.53L1998.17 1344.64Z" fill="#82D1F5"/>
<path d="M2478.29 1758.36L2461.89 1742.17L2541.15 1662.91L2461.89 1583.86L2478.29 1567.45L2573.75 1662.91L2478.29 1758.36ZM2354.5 1699.98V1676.55H2544.34L2520.91 1699.98H2354.5ZM2354.5 1649.27V1625.84H2520.91L2544.34 1649.27H2354.5ZM2714.03 1772V1553.82H2844.85V1577.26H2740.45V1650.98H2835.05V1674.41H2740.45V1772H2714.03ZM2934.84 1775.84C2924.48 1775.84 2915.06 1773.88 2906.61 1769.98C2898.16 1766 2891.45 1760.28 2886.48 1752.82C2881.51 1745.3 2879.02 1736.2 2879.02 1725.55C2879.02 1716.18 2880.87 1708.58 2884.56 1702.75C2888.25 1696.86 2893.19 1692.24 2899.37 1688.9C2905.55 1685.57 2912.37 1683.08 2919.82 1681.45C2927.35 1679.74 2934.92 1678.39 2942.51 1677.4C2952.46 1676.12 2960.52 1675.16 2966.7 1674.52C2972.95 1673.81 2977.49 1672.64 2980.33 1671.01C2983.25 1669.37 2984.7 1666.53 2984.7 1662.48V1661.63C2984.7 1651.12 2981.83 1642.95 2976.07 1637.13C2970.39 1631.3 2961.76 1628.39 2950.19 1628.39C2938.18 1628.39 2928.77 1631.02 2921.95 1636.28C2915.14 1641.53 2910.34 1647.14 2907.57 1653.11L2883.71 1644.59C2887.97 1634.64 2893.65 1626.9 2900.75 1621.36C2907.93 1615.75 2915.74 1611.84 2924.19 1609.64C2932.71 1607.37 2941.09 1606.23 2949.33 1606.23C2954.59 1606.23 2960.63 1606.87 2967.44 1608.15C2974.33 1609.36 2980.97 1611.88 2987.37 1615.71C2993.83 1619.55 2999.19 1625.34 3003.45 1633.08C3007.71 1640.82 3009.84 1651.19 3009.84 1664.19V1772H2984.7V1749.84H2983.42C2981.72 1753.39 2978.88 1757.19 2974.9 1761.24C2970.92 1765.29 2965.63 1768.73 2959.03 1771.57C2952.42 1774.41 2944.36 1775.84 2934.84 1775.84ZM2938.68 1753.25C2948.62 1753.25 2957 1751.3 2963.82 1747.39C2970.71 1743.48 2975.9 1738.44 2979.38 1732.26C2982.93 1726.08 2984.7 1719.59 2984.7 1712.77V1689.76C2983.64 1691.03 2981.29 1692.21 2977.67 1693.27C2974.12 1694.27 2970 1695.15 2965.31 1695.93C2960.7 1696.64 2956.19 1697.28 2951.78 1697.85C2947.45 1698.35 2943.94 1698.78 2941.24 1699.13C2934.7 1699.98 2928.59 1701.37 2922.91 1703.29C2917.3 1705.13 2912.76 1707.94 2909.28 1711.7C2905.87 1715.39 2904.16 1720.44 2904.16 1726.83C2904.16 1735.57 2907.39 1742.17 2913.86 1746.64C2920.39 1751.05 2928.67 1753.25 2938.68 1753.25ZM3080.88 1553.82V1772H3055.73V1553.82H3080.88ZM3242.83 1645.01L3220.25 1651.4C3218.83 1647.64 3216.73 1643.98 3213.96 1640.43C3211.26 1636.81 3207.57 1633.83 3202.88 1631.48C3198.2 1629.14 3192.2 1627.97 3184.88 1627.97C3174.87 1627.97 3166.52 1630.27 3159.84 1634.89C3153.24 1639.44 3149.94 1645.22 3149.94 1652.26C3149.94 1658.51 3152.21 1663.44 3156.75 1667.06C3161.3 1670.69 3168.4 1673.7 3178.06 1676.12L3202.35 1682.09C3216.98 1685.64 3227.88 1691.07 3235.06 1698.38C3242.23 1705.63 3245.82 1714.97 3245.82 1726.4C3245.82 1735.78 3243.12 1744.16 3237.72 1751.55C3232.39 1758.93 3224.94 1764.76 3215.35 1769.02C3205.76 1773.28 3194.61 1775.41 3181.9 1775.41C3165.21 1775.41 3151.39 1771.79 3140.46 1764.54C3129.52 1757.3 3122.59 1746.72 3119.68 1732.8L3143.54 1726.83C3145.82 1735.64 3150.11 1742.24 3156.44 1746.64C3162.83 1751.05 3171.17 1753.25 3181.47 1753.25C3193.19 1753.25 3202.49 1750.76 3209.38 1745.79C3216.34 1740.75 3219.82 1734.71 3219.82 1727.68C3219.82 1722 3217.83 1717.24 3213.86 1713.41C3209.88 1709.5 3203.77 1706.59 3195.53 1704.67L3168.26 1698.28C3153.27 1694.73 3142.27 1689.22 3135.24 1681.77C3128.27 1674.24 3124.79 1664.83 3124.79 1653.53C3124.79 1644.3 3127.39 1636.13 3132.57 1629.03C3137.83 1621.93 3144.97 1616.35 3153.99 1612.31C3163.08 1608.26 3173.37 1606.23 3184.88 1606.23C3201.07 1606.23 3213.79 1609.78 3223.02 1616.89C3232.32 1623.99 3238.93 1633.36 3242.83 1645.01ZM3352.27 1775.41C3336.5 1775.41 3322.9 1771.93 3311.47 1764.97C3300.11 1757.94 3291.33 1748.14 3285.16 1735.57C3279.05 1722.92 3275.99 1708.22 3275.99 1691.46C3275.99 1674.7 3279.05 1659.93 3285.16 1647.14C3291.33 1634.29 3299.93 1624.27 3310.94 1617.1C3322.02 1609.86 3334.94 1606.23 3349.71 1606.23C3358.24 1606.23 3366.65 1607.65 3374.96 1610.49C3383.27 1613.34 3390.84 1617.95 3397.66 1624.34C3404.47 1630.66 3409.91 1639.05 3413.95 1649.49C3418 1659.93 3420.03 1672.78 3420.03 1688.05V1698.7H3293.89V1676.97H3394.46C3394.46 1667.74 3392.61 1659.5 3388.92 1652.26C3385.3 1645.01 3380.11 1639.29 3373.37 1635.1C3366.69 1630.91 3358.81 1628.82 3349.71 1628.82C3339.7 1628.82 3331.04 1631.3 3323.72 1636.28C3316.48 1641.18 3310.9 1647.57 3306.99 1655.45C3303.09 1663.34 3301.14 1671.79 3301.14 1680.81V1695.3C3301.14 1707.65 3303.27 1718.13 3307.53 1726.72C3311.86 1735.25 3317.86 1741.74 3325.53 1746.22C3333.2 1750.62 3342.12 1752.82 3352.27 1752.82C3358.88 1752.82 3364.84 1751.9 3370.17 1750.05C3375.57 1748.14 3380.22 1745.3 3384.13 1741.53C3388.03 1737.7 3391.05 1732.94 3393.18 1727.26L3417.47 1734.07C3414.91 1742.31 3410.62 1749.56 3404.58 1755.81C3398.54 1761.99 3391.09 1766.82 3382.21 1770.3C3373.33 1773.7 3363.35 1775.41 3352.27 1775.41Z" fill="#FA8F00"/>
<path d="M1369.46 1625L1431.82 1687.37L1394.37 1724.82L1332 1662.46L1269.46 1725L1232 1687.54L1294.54 1625L1232 1562.46L1269.46 1525L1332 1587.54L1394.54 1525.18L1432 1562.63L1369.46 1625Z" fill="#737370"/>
</svg>
